<svg xmlns="http://www.w3.org/2000/svg" xml:space="preserve" viewBox="0 0 595.3 594.1"><path fill="#fff" d="M297.6 380.9c-40.4 0-74.1-28.6-82.1-66.6H81.1c9.5 110.5 102.2 197.2 215.1 197.2s205.7-86.7 215.1-197.2H379.7c-8 38.1-41.7 66.6-82.1 66.6z"/><path fill="#fff" d="M347.1 297c-.1 0-.1 0 0 0-.1-6.1-1.2-11.9-3.2-17.3-7-18.8-25.1-32.1-46.3-32.1s-39.3 13.4-46.3 32.1c-2 5.4-3.1 11.2-3.1 17.3h.1c0 6.1 1.1 11.9 3.1 17.3 7 18.8 25.1 32.1 46.3 32.1 21.2 0 39.3-13.4 46.3-32.1 2-5.3 3.1-11.2 3.1-17.3z"/><path fill="#ff1c1c" d="M297.7 213.2c40.4 0 74.1 28.6 82.1 66.6h134.4C504.7 169.2 412 82.5 299 82.5S93.4 169.2 83.9 279.7h131.7c8-38 41.7-66.5 82.1-66.5z"/><path d="M299 82.5c113 0 205.7 86.7 215.1 197.2H379.7c-8-38-41.7-66.6-82.1-66.6-40.4 0-74.1 28.6-82.1 66.6H83.9C93.4 169.2 186.1 82.5 299 82.5zm44.9 197.2c2 5.4 3.1 11.2 3.1 17.3h.1c0 6.1-1.1 11.9-3.1 17.3-7 18.8-25.1 32.1-46.3 32.1-21.2 0-39.3-13.4-46.3-32.1-2-5.4-3.1-11.2-3.1-17.3h-.1c0-6.1 1.1-11.9 3.1-17.3 7-18.8 25.1-32.1 46.3-32.1s39.3 13.4 46.3 32.1zm-47.7 231.9c-113 0-205.7-86.7-215.1-197.2h134.4c8 38 41.7 66.6 82.1 66.6s74.1-28.6 82.1-66.6h131.7c-9.5 110.4-102.2 197.2-215.2 197.2zm1.4-470.3C156.4 41.3 41.9 155.8 41.9 297s114.5 255.7 255.7 255.7S553.4 438.3 553.4 297 438.9 41.3 297.6 41.3z"/></svg>